<svg width="66" height="71" viewBox="0 0 66 71" fill="none" xmlns="http://www.w3.org/2000/svg">
<g id="Vector">
<path d="M32.1748 1C27.6279 6.32385 25.2103 11.2404 24.4483 15.4698C23.2658 22.0344 26.0719 26.9435 31.0957 29.1508C31.4449 29.3042 31.8048 29.4445 32.1748 29.5715C32.1922 29.5655 32.2096 29.5595 32.2269 29.5535C32.5547 29.4396 32.8745 29.3152 33.1858 29.1804C38.2855 26.9733 41.1263 21.9992 39.8774 15.3398C39.0897 11.1398 36.6752 6.26941 32.1748 1Z" fill="#5F6D68"/>
<path d="M12.8632 11.3245C12.5366 29.5823 23.0246 36.6003 32.2269 33.6875V29.5535C32.2096 29.5595 32.1922 29.5655 32.1748 29.5715C31.8048 29.4445 31.4449 29.3042 31.0957 29.1508C26.0719 26.9435 23.2658 22.0344 24.4483 15.4698C21.4209 13.7679 17.5785 12.3359 12.8632 11.3245Z" fill="#E6DFBB"/>
<path d="M50.622 40.9007C50.0423 39.6189 49.3693 38.2939 48.5967 36.9256H32.2269H18.0466C15.0599 41.8575 13.4878 46.2495 13.0077 50.0933C12.9206 50.7904 12.8695 51.4695 12.8523 52.1306C12.8322 52.9069 12.8589 53.6583 12.9295 54.3846C13.7276 54.2921 14.6215 54.1716 15.5941 54.0266C25.7599 52.5115 44.5253 48.3316 52.4159 45.6596C52.1909 44.9029 51.93 44.1282 51.6318 43.3355C51.3332 42.542 50.9972 41.7304 50.622 40.9007Z" fill="#9FBAB1"/>
<path d="M13.4898 57.3413C17.4381 71.0109 38.5274 73.7285 48.4139 64.769C52.2992 61.248 54.4544 55.9236 53.159 48.7517C53.1005 48.4278 53.035 48.1002 52.9623 47.7688C42.7091 51.1118 27.9033 54.7877 16.7168 56.7936C15.6025 56.9934 14.5242 57.1766 13.4898 57.3413Z" fill="#9FBAB1"/>
<path d="M12.8523 52.1306C12.8695 51.4695 12.9206 50.7904 13.0077 50.0933C-5.93142 58.4949 0.0864557 59.4753 13.4898 57.3413C14.5242 57.1766 15.6025 56.9934 16.7168 56.7936C27.9033 54.7877 42.7091 51.1118 52.9623 47.7688C66.571 43.3319 72.1598 39.4815 50.622 40.9007C50.9972 41.7304 51.3332 42.542 51.6318 43.3355C57.8854 43.0955 56.9308 44.1307 52.4159 45.6596C44.5253 48.3316 25.7599 52.5115 15.5941 54.0266C14.6215 54.1716 13.7276 54.2921 12.9295 54.3846C8.07002 54.948 6.76109 54.4715 12.8523 52.1306Z" fill="#222222"/>
<path d="M32.2269 33.6875C41.4292 36.6003 51.7345 29.4829 51.4079 11.2251C46.7209 12.2305 42.8963 13.6514 39.8774 15.3398C41.1263 21.9992 38.2855 26.9733 33.1858 29.1804C32.8745 29.3152 32.5547 29.4396 32.2269 29.5535V33.6875Z" fill="#E6DFBB"/>
<path d="M50.622 40.9007C50.0423 39.6189 49.3693 38.2939 48.5967 36.9256H32.2269M50.622 40.9007C50.9972 41.7304 51.3332 42.542 51.6318 43.3355M50.622 40.9007C72.1598 39.4815 66.571 43.3319 52.9623 47.7688M13.0077 50.0933C13.4878 46.2495 15.0599 41.8575 18.0466 36.9256H32.2269M13.0077 50.0933C12.9206 50.7904 12.8695 51.4695 12.8523 52.1306M13.0077 50.0933C-5.93142 58.4949 0.0864557 59.4753 13.4898 57.3413M12.8523 52.1306C6.76109 54.4715 8.07002 54.948 12.9295 54.3846M12.8523 52.1306C12.8322 52.9069 12.8589 53.6583 12.9295 54.3846M51.6318 43.3355C57.8854 43.0955 56.9308 44.1307 52.4159 45.6596M51.6318 43.3355C51.93 44.1282 52.1909 44.9029 52.4159 45.6596M12.9295 54.3846C13.7276 54.2921 14.6215 54.1716 15.5941 54.0266C25.7599 52.5115 44.5253 48.3316 52.4159 45.6596M13.4898 57.3413C17.4381 71.0109 38.5274 73.7285 48.4139 64.769M13.4898 57.3413C14.5242 57.1766 15.6025 56.9934 16.7168 56.7936C27.9033 54.7877 42.7091 51.1118 52.9623 47.7688M48.4139 64.769C52.2992 61.248 54.4544 55.9236 53.159 48.7517M48.4139 64.769C52.3477 61.6657 54.5437 56.4181 53.159 48.7517M53.159 48.7517C53.1005 48.4278 53.035 48.1002 52.9623 47.7688M32.2269 36.9256V29.5535M32.2269 16.2547V29.5535M32.2269 33.6875C23.0246 36.6003 12.5366 29.5823 12.8632 11.3245C17.5785 12.3359 21.4209 13.7679 24.4483 15.4698M32.2269 33.6875C41.4292 36.6003 51.7345 29.4829 51.4079 11.2251C46.7209 12.2305 42.8963 13.6514 39.8774 15.3398M32.2269 33.6875V29.5535M24.4483 15.4698C25.2103 11.2404 27.6279 6.32385 32.1748 1C36.6752 6.26941 39.0897 11.1398 39.8774 15.3398M24.4483 15.4698C23.2658 22.0344 26.0719 26.9435 31.0957 29.1508C31.4449 29.3042 31.8048 29.4445 32.1748 29.5715C32.1922 29.5655 32.2096 29.5595 32.2269 29.5535M39.8774 15.3398C41.1263 21.9992 38.2855 26.9733 33.1858 29.1804C32.8745 29.3152 32.5547 29.4396 32.2269 29.5535" stroke="black" stroke-width="0.61" stroke-linecap="round"/>
</g>
</svg>
